<?xml version="1.0" encoding="UTF-8"?>
<svg version="1.1" xmlns="http://www.w3.org/2000/svg" width="512" height="512">
<path d="M0 0 C2.44974585 0.00565062 4.89948474 0.00846461 7.34923553 0.0110817 C30.57740925 0.04713932 53.66756666 0.37473173 76.76665497 3.05511856 C79.21429919 3.33889194 81.66293933 3.61288089 84.11174774 3.88641739 C95.07660191 5.12292287 106.01794513 6.49978798 116.94615936 8.026371 C118.86663491 8.29459886 120.78774728 8.55825676 122.70891571 8.82147598 C165.11853233 14.78266707 198.79873274 38.9236873 224.5111618 72.53680801 C229.08181643 78.63603558 233.14885299 84.93026355 236.7845993 91.63055801 C237.1249118 92.2443129 237.4652243 92.85806778 237.8158493 93.4904213 C244.59555411 106.44682831 248.03728137 120.26677955 250.1595993 134.63055801 C250.40760254 136.23535144 250.65598368 137.8400865 250.90471649 139.444767 C252.5989376 150.5606161 254.02630943 161.70748151 255.2845993 172.88055801 C255.36164093 173.55801071 255.43868256 174.23546341 255.51805878 174.93344498 C256.09162173 180.0559043 256.57865201 185.18389328 257.0345993 190.31805801 C257.12180237 191.2751265 257.20900543 192.23219498 257.29885101 193.21826553 C259.05682597 213.03216864 259.39848902 232.74274677 259.35265732 252.61885452 C259.34701257 255.10627685 259.34419469 257.59369235 259.34157562 260.08111954 C259.30405867 284.60097042 258.85084335 308.93610484 256.0345993 333.31805801 C255.94267303 334.13115433 255.85074677 334.94425064 255.75603485 335.78198624 C254.45047114 347.30630823 252.97678625 358.80109722 251.32628632 370.28100967 C251.05625289 372.16683635 250.79340313 374.05368788 250.53118134 375.94061661 C244.80548222 416.4446363 222.22683011 450.95907929 189.7299118 475.58758926 C180.98694187 482.09049102 172.21203487 488.00874027 162.3470993 492.69305801 C161.36906342 493.15748306 161.36906342 493.15748306 160.37126923 493.63129044 C148.95702987 498.82368907 137.35199574 501.41222824 125.0345993 503.31805801 C124.23724365 503.44434586 123.439888 503.5706337 122.61837006 503.70074844 C110.60186207 505.59978998 98.56186549 507.21447594 86.4720993 508.56805801 C85.79509979 508.64491837 85.11810028 508.72177872 84.42058563 508.80096817 C79.29765216 509.37469672 74.1692489 509.86201906 69.0345993 510.31805801 C68.07786316 510.40526108 67.12112701 510.49246414 66.13539886 510.58230972 C46.30086571 512.34278499 26.56949236 512.68115366 6.67268372 512.63591385 C4.18518675 512.63047734 1.69769929 512.62810746 -0.78980255 512.62604141 C-24.26242734 512.59566113 -47.58303887 512.22675837 -70.92761993 509.54913712 C-73.03022576 509.31070702 -75.13392765 509.08575088 -77.23834991 508.86395645 C-86.83872894 507.84634315 -96.40354302 506.65092302 -105.9654007 505.31805801 C-106.62880463 505.22695755 -107.29220856 505.13585709 -107.97571564 505.041996 C-124.2741432 502.79724929 -139.9491296 500.28086962 -154.9654007 493.31805801 C-155.63023468 493.00997208 -156.29506866 492.70188614 -156.98004913 492.38446426 C-187.85974234 477.68420537 -214.49277834 450.90212875 -230.7154007 421.00555801 C-231.0557132 420.39180313 -231.3960257 419.77804825 -231.7466507 419.14569473 C-238.53854957 406.16598413 -241.96956146 392.33243261 -244.0904007 377.94305801 C-244.33830791 376.33491332 -244.58669098 374.72684191 -244.83551788 373.11883926 C-246.4974659 362.21169796 -247.93531848 351.27622803 -249.2154007 340.31805801 C-249.44187286 338.39534073 -249.44187286 338.39534073 -249.67292023 336.43378067 C-250.15456666 332.06529636 -250.57824178 327.69580877 -250.9654007 323.31805801 C-251.05260376 322.33794754 -251.13980682 321.35783707 -251.2296524 320.34802628 C-252.97445536 300.02864169 -253.32983764 279.80632584 -253.28345871 259.42492676 C-253.27781232 256.90359559 -253.27499571 254.38227117 -253.27237701 251.86093521 C-253.23569963 227.56567434 -252.8195198 203.47008031 -249.9654007 179.31805801 C-249.77564499 177.66135436 -249.5862045 176.00461458 -249.39704132 174.34784317 C-248.16424791 163.66474773 -246.7812422 153.00757505 -245.25708771 142.36224747 C-244.98744085 140.47251894 -244.72441633 138.58184864 -244.46198273 136.69110489 C-238.46079484 94.24460773 -214.40874367 60.59138601 -180.7466507 34.84149551 C-174.64742313 30.27084089 -168.35319516 26.20380432 -161.6529007 22.56805801 C-160.73226837 22.05758926 -160.73226837 22.05758926 -159.79303741 21.53680801 C-146.83673222 14.75715649 -133.01664213 11.31511441 -118.6529007 9.19305801 C-117.04737611 8.9450468 -115.44190861 8.69666583 -113.83649445 8.44794083 C-102.74186279 6.75761272 -91.6165923 5.32820377 -80.4654007 4.06805801 C-79.79221802 3.99101639 -79.11903534 3.91397476 -78.42545319 3.83459854 C-73.27830034 3.25466213 -68.12557833 2.76654289 -62.9654007 2.31805801 C-61.972883 2.23085495 -60.9803653 2.14365189 -59.9577713 2.0538063 C-39.95562482 0.35142028 -20.05988783 -0.04703611 0 0 Z M-135.9654007 132.31805801 C-156.293775 158.6427349 -157.2960107 187.89185096 -157.2340517 219.76908994 C-157.22888904 223.27149434 -157.23371088 226.77388975 -157.23682404 230.27629471 C-157.24043397 236.15017997 -157.23574319 242.02401449 -157.22614288 247.897892 C-157.21525903 254.63375812 -157.21879554 261.36950308 -157.22979569 268.10536629 C-157.23894825 273.94976524 -157.24011554 279.79412828 -157.23491836 285.6385321 C-157.23184259 289.10244756 -157.23126515 292.56630658 -157.23799133 296.03021812 C-157.28556268 331.73827717 -153.92203965 362.3148664 -128.3091507 389.09540176 C-107.49569429 408.96000943 -81.68261174 416.45382937 -53.39362335 416.47919083 C-52.04382952 416.48382927 -50.69403698 416.48885527 -49.34424591 416.49423599 C-45.69899172 416.50726885 -42.05375588 416.51378775 -38.40848207 416.51824665 C-36.12093778 416.521194 -33.83339831 416.52530193 -31.54585648 416.52975082 C-24.35960403 416.54340577 -17.17336284 416.55308051 -9.98709834 416.55695271 C-1.74655234 416.56141967 6.49382666 416.57891236 14.73432195 416.60795331 C21.138997 416.62972503 27.54362562 416.63966527 33.9483372 416.64099383 C37.75675259 416.64203146 41.56501062 416.64771177 45.37338638 416.66581345 C81.62364911 416.82803453 110.58272443 412.0977164 137.3080368 386.10712051 C148.73398157 373.95858636 156.40772663 358.87878264 160.3470993 342.75555801 C160.58650238 341.7842897 160.58650238 341.7842897 160.83074188 340.79339981 C163.21044954 330.14056163 163.18332519 319.08580775 163.16399384 308.22259903 C163.16574615 306.98497818 163.16749847 305.74735733 163.16930389 304.47223282 C163.17291792 301.11884167 163.17211731 297.76551329 163.16892481 294.41212583 C163.16636462 290.87531157 163.16874887 287.33849971 163.17031097 283.80168533 C163.17212234 277.86499942 163.16975386 271.92832601 163.1649704 265.991642 C163.1595323 259.16439961 163.16129134 252.33718712 163.1667968 245.50994545 C163.17136053 239.61057233 163.17196256 233.71120812 163.16935813 227.8118338 C163.16781286 224.30495238 163.16755281 220.79808493 163.17089462 217.29120445 C163.17436675 213.37509534 163.16953072 209.45901869 163.16399384 205.54291153 C163.16703018 203.83967979 163.16703018 203.83967979 163.17012787 202.10203934 C163.09285759 172.34608121 156.06606753 146.9948962 135.0345993 125.31805801 C134.11807587 124.29131973 134.11807587 124.29131973 133.1830368 123.24383926 C119.58595863 108.5184929 96.85049439 98.0471078 76.93872356 97.18383694 C75.27666614 97.17742671 75.27666614 97.17742671 73.5810318 97.17088699 C72.30157181 97.16373169 71.02211182 97.15657639 69.70388031 97.14920425 C68.29808832 97.14636441 66.89229606 97.14365263 65.4865036 97.14105606 C63.99597772 97.13478461 62.50545339 97.12813721 61.01493073 97.12114334 C56.12957076 97.10016852 51.24421075 97.08974198 46.35881805 97.07977676 C44.66963244 97.07572571 42.98044697 97.07160869 41.29126167 97.06742668 C33.34681681 97.04838356 25.40238115 97.03415488 17.45791787 97.02581471 C8.32698635 97.01606784 -0.80370111 96.98981161 -9.93454677 96.94931382 C-17.01598083 96.91899864 -24.09734559 96.90433106 -31.1788432 96.9010337 C-35.39640897 96.89869928 -39.61371381 96.88995238 -43.83120918 96.86457253 C-47.80976733 96.84101765 -51.78789787 96.83716646 -55.7665081 96.84733391 C-57.21230124 96.84782293 -58.65811744 96.84169426 -60.10384369 96.82777786 C-89.84282818 96.55795933 -116.69287943 109.80355455 -135.9654007 132.31805801 Z " fill="#000000" transform="translate(252.96540069580078,-0.3180580139160156)"/>
<path d="M0 0 C1.43554714 -0.00571743 2.87108975 -0.01268693 4.30662537 -0.02079773 C8.17050178 -0.03859545 12.03414943 -0.03758597 15.89805436 -0.03185534 C19.14061223 -0.02874315 22.38312744 -0.03487851 25.62567919 -0.04089409 C33.28499482 -0.05489454 40.9441988 -0.05341628 48.60351562 -0.04199219 C56.46636777 -0.03052259 64.32887835 -0.0445773 72.1916855 -0.07138866 C78.97769256 -0.09364925 85.76359323 -0.10015966 92.54963416 -0.09431225 C96.58704961 -0.09096522 100.6242464 -0.09320532 104.66163063 -0.11056328 C108.46302213 -0.12619624 112.26391372 -0.12189916 116.06528664 -0.10325813 C118.0983728 -0.09790137 120.13148232 -0.11196195 122.16452026 -0.12695312 C140.29315841 0.01583351 155.94009523 5.96161419 169.28979492 18.40405273 C182.96274898 32.56374626 187.76916044 48.97016801 187.67797852 68.23193359 C187.68205289 69.69190359 187.68739959 71.15187049 187.69390869 72.61183167 C187.70748654 76.545823 187.70232314 80.47957607 187.69277143 84.41357112 C187.68512358 88.55058688 187.69223471 92.68758358 187.69692993 96.82460022 C187.70237327 103.77031071 187.69523399 110.71592521 187.6809082 117.66162109 C187.66459085 125.66476675 187.66986925 133.66768296 187.68638742 141.67082304 C187.70005068 148.56970891 187.70189821 155.46852616 187.69407141 162.36742121 C187.68942055 166.47569283 187.68869797 170.58385701 187.69868088 174.69212151 C187.70741889 178.55744598 187.70120558 182.42247798 187.68399811 186.28777122 C187.68006914 187.69694791 187.68110481 189.10614969 187.6877861 190.51531601 C187.76480032 208.42530831 183.1231528 224.14771081 170.61767578 237.27148438 C157.73642862 250.15273154 142.92577215 256.57558329 124.80383301 256.69732666 C123.41943347 256.69662781 122.03503403 256.69570484 120.65063477 256.69458008 C119.17464867 256.70057267 117.69866569 256.70737989 116.22268677 256.7149353 C112.23059534 256.73253243 108.23858977 256.73728814 104.2464633 256.73856688 C101.745717 256.73999309 99.24499219 256.74427167 96.74425125 256.74956131 C88.0007922 256.76804383 79.25739395 256.77623453 70.51391602 256.7746582 C62.39552819 256.77345868 54.27740701 256.79452838 46.15908659 256.82614553 C39.16427194 256.85240505 32.16954384 256.8630214 25.17468035 256.86174738 C21.00811601 256.8612404 16.84178863 256.8667757 12.6752739 256.88810349 C8.75002702 256.9076488 4.8252391 256.90750083 0.89997482 256.89307022 C-0.52933432 256.89100072 -1.95867343 256.89557013 -3.38793182 256.90779114 C-22.35167218 257.05925677 -37.55007088 251.29296961 -51.05004883 238.12670898 C-64.74349536 224.11153684 -69.18961768 207.68152131 -69.09838867 188.46264648 C-69.10246425 187.00252899 -69.10781161 185.54241459 -69.11431885 184.08230591 C-69.12788125 180.15250567 -69.12274015 176.2229443 -69.11318159 172.29314041 C-69.10552703 168.15879983 -69.11264656 164.0244782 -69.11734009 159.89013672 C-69.1227809 152.95040253 -69.11565021 146.01076448 -69.10131836 139.07104492 C-69.08499506 131.07526284 -69.09028476 123.07971035 -69.10679758 115.08393383 C-69.1204604 108.18927403 -69.12230877 101.2946829 -69.11448157 94.40001392 C-69.1098313 90.29511063 -69.1091066 86.19031486 -69.11909103 82.0854187 C-69.12782868 78.22418474 -69.12161641 74.36324357 -69.10440826 70.50204086 C-69.10047938 69.09447589 -69.10151482 67.6868858 -69.10819626 66.27933121 C-69.19004835 47.26664814 -63.61895123 31.50060984 -50.27661133 17.77124023 C-35.8751934 4.48774059 -19.23944925 -0.06575251 0 0 Z M126.28979492 34.40405273 C123.26813399 38.39696182 122.14721093 42.42252449 122.28979492 47.40405273 C123.64797659 54.66789933 126.75783553 58.4953803 132.41479492 63.15405273 C137.1690463 66.32355365 142.80415836 66.07102221 148.28979492 65.40405273 C154.37631362 62.97549146 158.38190274 58.83825866 161.53979492 53.15405273 C163.30833862 46.6693925 162.86843805 41.07685007 159.56323242 35.19311523 C156.69927795 31.16952276 152.85280124 28.28732989 148.28979492 26.40405273 C138.81598508 25.30211413 132.68642058 27.1430182 126.28979492 34.40405273 Z M0.28979492 71.40405273 C-0.40758789 72.08983398 -1.1049707 72.77561523 -1.82348633 73.48217773 C-11.22781986 83.34303231 -16.825056 95.47452827 -20.71020508 108.40405273 C-20.95641602 109.19553711 -21.20262695 109.98702148 -21.45629883 110.80249023 C-26.23517186 129.58840491 -22.26883639 151.5150677 -13.14770508 168.27514648 C0.0411493 189.79862412 18.12547987 203.11323105 42.28979492 209.40405273 C63.3487222 214.16968154 85.11696984 209.47312613 103.28979492 198.40405273 C122.62321807 185.84044263 135.50889093 167.02083086 140.43041992 144.54467773 C144.80633383 121.17605102 138.79974411 99.63345847 125.97729492 80.09155273 C112.48194676 61.97617547 93.21505028 50.57662174 70.93432617 46.84155273 C44.28355114 43.64231715 19.27734087 52.44918759 0.28979492 71.40405273 Z " fill="#000000" transform="translate(196.710205078125,127.595947265625)"/>
<path d="M0 0 C9.06733768 8.57876481 15.0737424 20.74486799 15.92578125 33.24609375 C16.23233324 49.52561803 12.22972296 62.81306573 1 75 C-10.07014948 85.40765018 -22.6923567 89.28079569 -37.54174805 89.16992188 C-51.25985346 88.72132646 -62.65803516 83.28152953 -72.625 73.9375 C-82.56534321 63.30600819 -86.97958629 50.10559157 -86.78515625 35.65527344 C-86.15730393 21.60366551 -79.63370751 8.27879235 -69.3125 -1.25 C-47.98935832 -17.51679607 -20.61565721 -17.4156149 0 0 Z " fill="#000000" transform="translate(291.3125,218.25)"/>
</svg>
