<svg width="500" height="450" xmlns="http://www.w3.org/2000/svg" xmlns:xlink="http://www.w3.org/1999/xlink" version="1.1" xml:space="preserve">
 <g>
  <title>Layer 1</title>
  <g id="BACKGROUND">
   <g opacity="0.96" id="svg_1"/>
  </g>
  <g id="OBJECTS">
   <path d="m389.66901,93.249l-283.33801,0c-30.83501,0 -55.83101,24.997 -55.83101,55.831c0,30.83499 24.996,55.83099 55.83101,55.83099l27.91599,0l26.98502,26.985l26.985,-26.985l201.45201,0c30.83499,0 55.83099,-24.996 55.83099,-55.83099c0,-30.835 -24.99701,-55.831 -55.83099,-55.831z" fill="#CFE3F3" id="svg_3"/>
   <path d="m109.665,270.582l283.33701,0c30.83499,0 55.83099,24.99701 55.83099,55.83099c0,30.83499 -24.996,55.83099 -55.83099,55.83099l-27.91602,0l-26.98499,26.98502l-26.98505,-26.98502l-201.451,0c-30.83499,0 -55.831,-24.996 -55.831,-55.83099c-0.001,-30.83398 24.996,-55.83099 55.831,-55.83099l0.00003,0z" fill="#CFE3F3" id="svg_4"/>
   <path d="m394.43201,84.396l-288.86501,0c-31.437,0 -56.92,25.48399 -56.92,56.92101c0,31.437 25.484,56.92099 56.92,56.92099l28.45998,0l27.511,27.51201l27.51201,-27.51201l205.38199,0c31.436,0 56.92099,-25.48399 56.92099,-56.92099c0,-31.43603 -25.48401,-56.92101 -56.92099,-56.92101l0.00003,0z" fill="#FE624A" id="svg_5"/>
   <g id="svg_6">
    <g id="svg_7">
     <path d="m203.73801,131.026l-8.843,4.649c-0.67998,0.358 -1.476,-0.22 -1.34598,-0.978l1.689,-9.84602c0.052,-0.30099 -0.048,-0.608 -0.267,-0.821l-7.15399,-6.973c-0.55,-0.537 -0.24701,-1.471 0.51399,-1.582l9.886,-1.437c0.30199,-0.044 0.56299,-0.23399 0.698,-0.507l4.42101,-8.958c0.34,-0.689 1.323,-0.689 1.66299,0l4.42101,8.958c0.13499,0.274 0.396,0.464 0.698,0.507l9.886,1.437c0.761,0.11 1.064,1.045 0.51399,1.582l-7.15399,6.973c-0.218,0.213 -0.31801,0.52 -0.267,0.821l1.689,9.84602c0.13,0.758 -0.66499,1.33498 -1.34601,0.978l-8.84299,-4.649c-0.26602,-0.142 -0.58902,-0.142 -0.85901,0l-0.00002,0z" fill="#FEC300" id="svg_8"/>
     <path d="m212.22099,114.343l-2.10001,-0.305c-0.302,-0.044 -0.563,-0.234 -0.69801,-0.507l-4.42101,-8.958c-0.34,-0.689 -1.323,-0.689 -1.66299,0l-4.42101,8.958c-0.13499,0.274 -0.396,0.46301 -0.698,0.507l-9.886,1.437c-0.761,0.11 -1.064,1.045 -0.51399,1.582l7.15399,6.973c0.21901,0.213 0.31801,0.52 0.26701,0.821l-1.09901,6.41c9.00102,-4.402 14.60101,-10.831 18.07901,-16.918l0.00002,0z" fill="#FEE139" id="svg_9"/>
    </g>
    <g id="svg_10">
     <path d="m247.399,131.026l-8.842,4.649c-0.68002,0.358 -1.47601,-0.22 -1.34602,-0.978l1.68901,-9.84602c0.052,-0.30099 -0.04799,-0.608 -0.267,-0.821l-7.15399,-6.973c-0.55,-0.537 -0.24701,-1.471 0.51399,-1.582l9.88599,-1.437c0.302,-0.044 0.563,-0.23399 0.69801,-0.507l4.42101,-8.958c0.34,-0.689 1.323,-0.689 1.66299,0l4.42101,8.958c0.13499,0.274 0.396,0.464 0.698,0.507l9.88599,1.437c0.76102,0.11 1.06403,1.045 0.51401,1.582l-7.15399,6.973c-0.21899,0.213 -0.31799,0.52 -0.267,0.821l1.689,9.84602c0.13,0.758 -0.66501,1.33498 -1.34601,0.978l-8.842,-4.649c-0.269,-0.142 -0.59099,-0.142 -0.86098,0l-0.00002,0z" fill="#FEC300" id="svg_11"/>
     <path d="m255.881,114.343l-2.09999,-0.305c-0.302,-0.044 -0.56299,-0.234 -0.69801,-0.507l-4.42099,-8.958c-0.34,-0.689 -1.323,-0.689 -1.66301,0l-4.42099,8.958c-0.13501,0.274 -0.396,0.46301 -0.698,0.507l-9.886,1.437c-0.76099,0.11 -1.06401,1.045 -0.51401,1.582l7.15401,6.973c0.21899,0.213 0.31799,0.52 0.26701,0.821l-1.099,6.41c9.00098,-4.402 14.601,-10.831 18.07898,-16.918z" fill="#FEE139" id="svg_12"/>
    </g>
    <g id="svg_13">
     <path d="m291.05899,131.026l-8.84201,4.649c-0.67999,0.358 -1.47498,-0.22 -1.34598,-0.978l1.689,-9.84602c0.052,-0.30099 -0.048,-0.608 -0.267,-0.821l-7.15402,-6.973c-0.54999,-0.537 -0.24698,-1.471 0.51401,-1.582l9.88602,-1.437c0.302,-0.044 0.56299,-0.23399 0.698,-0.507l4.42099,-8.958c0.34,-0.689 1.323,-0.689 1.66299,0l4.42102,8.958c0.13498,0.274 0.396,0.464 0.698,0.507l9.88599,1.437c0.76099,0.11 1.06403,1.045 0.51401,1.582l-7.15396,6.973c-0.21902,0.213 -0.31802,0.52 -0.26706,0.821l1.68906,9.84602c0.12994,0.758 -0.66501,1.33498 -1.34601,0.978l-8.84305,-4.649c-0.26697,-0.142 -0.58997,-0.142 -0.85999,0z" fill="#FEC300" id="svg_14"/>
     <path d="m299.54199,114.343l-2.10001,-0.305c-0.302,-0.044 -0.56299,-0.234 -0.698,-0.507l-4.42099,-8.958c-0.34,-0.689 -1.323,-0.689 -1.66299,0l-4.42102,8.958c-0.13498,0.274 -0.396,0.46301 -0.698,0.507l-9.88599,1.437c-0.76102,0.11 -1.064,1.045 -0.51401,1.582l7.15399,6.973c0.21896,0.213 0.31796,0.52 0.267,0.821l-1.099,6.41c9.00003,-4.402 14.60001,-10.831 18.07901,-16.918z" fill="#FEE139" id="svg_15"/>
    </g>
    <g id="svg_16">
     <path d="m334.71899,131.026l-8.84302,4.649c-0.67999,0.358 -1.47498,-0.22 -1.34598,-0.978l1.689,-9.84602c0.052,-0.30099 -0.048,-0.608 -0.267,-0.821l-7.15399,-6.973c-0.55002,-0.537 -0.24701,-1.471 0.51398,-1.582l9.88602,-1.437c0.302,-0.044 0.56299,-0.23399 0.698,-0.507l4.42099,-8.958c0.34,-0.689 1.323,-0.689 1.66299,0l4.42102,8.958c0.13498,0.274 0.396,0.464 0.698,0.507l9.88599,1.437c0.76102,0.11 1.064,1.045 0.51401,1.582l-7.15399,6.973c-0.21802,0.213 -0.31802,0.52 -0.267,0.821l1.689,9.84602c0.13,0.758 -0.66501,1.33498 -1.34601,0.978l-8.84201,-4.649c-0.26697,-0.142 -0.58997,-0.142 -0.85999,0z" fill="#FEC300" id="svg_17"/>
     <path d="m343.202,114.343l-2.10001,-0.305c-0.302,-0.044 -0.56299,-0.234 -0.698,-0.507l-4.42099,-8.958c-0.34,-0.689 -1.323,-0.689 -1.66299,0l-4.42102,8.958c-0.13498,0.274 -0.396,0.46301 -0.698,0.507l-9.88599,1.437c-0.76102,0.11 -1.064,1.045 -0.51401,1.582l7.15399,6.973c0.21902,0.213 0.31802,0.52 0.267,0.821l-1.099,6.41c9,-4.402 14.60101,-10.831 18.07901,-16.918z" fill="#FEE139" id="svg_18"/>
    </g>
    <g id="svg_19">
     <path d="m378.379,131.026l-8.84201,4.649c-0.67999,0.358 -1.47598,-0.22 -1.34598,-0.978l1.689,-9.84602c0.052,-0.30099 -0.048,-0.608 -0.267,-0.821l-7.15399,-6.973c-0.55002,-0.537 -0.24701,-1.471 0.51398,-1.582l9.88602,-1.437c0.302,-0.044 0.56299,-0.23399 0.698,-0.507l4.42099,-8.958c0.34003,-0.689 1.323,-0.689 1.66299,0l4.42102,8.958c0.13498,0.274 0.396,0.464 0.698,0.507l9.88599,1.437c0.76105,0.11 1.06403,1.045 0.51404,1.582l-7.15399,6.973c-0.21902,0.213 -0.31802,0.52 -0.267,0.821l1.689,9.84602c0.13,0.758 -0.66501,1.33498 -1.34601,0.978l-8.84201,-4.649c-0.26804,-0.142 -0.591,-0.142 -0.86099,0l-0.00003,0z" fill="#FEC300" id="svg_20"/>
     <path d="m386.862,114.343l-2.10001,-0.305c-0.302,-0.044 -0.56299,-0.234 -0.698,-0.507l-4.42099,-8.958c-0.34,-0.689 -1.323,-0.689 -1.66299,0l-4.42102,8.958c-0.13498,0.274 -0.396,0.46301 -0.698,0.507l-9.88599,1.437c-0.76102,0.11 -1.064,1.045 -0.51401,1.582l7.15399,6.973c0.21902,0.213 0.31802,0.52 0.267,0.821l-1.099,6.41c9.00101,-4.402 14.60101,-10.831 18.07901,-16.918z" fill="#FEE139" id="svg_21"/>
    </g>
   </g>
   <g id="svg_22">
    <path d="m392.67401,158.22099l-200.60001,0c-1.73999,0 -3.14998,-1.411 -3.14998,-3.151l0,0c0,-1.74001 1.40999,-3.151 3.14998,-3.151l200.60001,0c1.73999,0 3.151,1.411 3.151,3.151l0,0c-0.00101,1.74001 -1.41101,3.151 -3.151,3.151z" fill="#FFFFFF" id="svg_23"/>
    <path d="m285.039,173.979l-92.966,0c-1.74001,0 -3.14999,-1.41101 -3.14999,-3.151l0,0c0,-1.74001 1.40999,-3.151 3.14999,-3.151l92.966,0c1.73999,0 3.151,1.411 3.151,3.151l0,0c0,1.73999 -1.41101,3.151 -3.151,3.151z" fill="#FFFFFF" id="svg_24"/>
   </g>
   <g id="svg_25">
    <circle cx="119.82" cy="143.25" r="37.5" fill="#FFFFFF" id="svg_26"/>
    <g id="svg_27">
     <g id="svg_28">
      <defs>
       <circle id="SVGID_1_" cx="119.82" cy="143.25" r="37.5"/>
      </defs>
      <clipPath id="SVGID_00000092438820223230861590000011079318643622782130_">
       <use xlink:href="#SVGID_1_" id="svg_29"/>
      </clipPath>
      <g clip-path="url(#SVGID_00000092438820223230861590000011079318643622782130_)" id="svg_30">
       <path d="m138.47701,205.004l0,-19.52699c0,-10.64699 -8.631,-19.27901 -19.27898,-19.27901l0,0c-10.64701,0 -19.27902,8.631 -19.27902,19.27901l0,19.52699l38.55801,0z" fill="#6661FF" id="svg_31"/>
       <path d="m137.731,142.877c0,0 2.985,-11.567 1.119,-15.485c-1.86601,-3.918 -3.17201,-2.052 -5.224,-6.903c-2.052,-4.851 -8.769,-10.634 -18.09702,-10.448c-9.328,0.187 -13.06001,7.09 -12.313,11.754c0.74599,4.664 -2.23901,4.664 -2.425,9.515c-0.187,4.851 1.679,12.687 4.478,14.739c2.797,2.052 25.55901,8.022 32.46201,-3.172z" fill="#40307D" id="svg_32"/>
       <path d="m119.54,176.086l0,0c-3.864,0 -6.996,-3.132 -6.996,-6.996l0,-12.034l13.993,0l0,12.034c0,3.864 -3.133,6.996 -6.997,6.996z" fill="#F48E69" id="svg_33"/>
       <g id="svg_34">
        <path d="m105.834,141.944c0,0 -1.866,-6.903 -6.157,-5.037c-4.291,1.866 0.933,15.672 4.664,12.5c3.73199,-3.172 1.493,-7.463 1.493,-7.463z" fill="#F48E69" id="svg_35"/>
        <path d="m133.806,141.944c0,0 1.866,-6.903 6.157,-5.037c4.291,1.866 -0.933,15.672 -4.664,12.5c-3.731,-3.172 -1.493,-7.463 -1.493,-7.463z" fill="#F48E69" id="svg_36"/>
       </g>
       <path d="m119.82,165.078l0,0c-8.552,0 -15.485,-6.933 -15.485,-15.485l0,-14.925c0,-8.552 6.933,-15.485 15.485,-15.485l0,0c8.55199,0 15.48499,6.933 15.48499,15.485l0,14.925c0,8.552 -6.933,15.485 -15.48499,15.485z" fill="#FFC39A" id="svg_37"/>
       <path d="m105.828,125.34c0,0 1.679,4.104 11.93999,3.358c10.26102,-0.74599 13.619,1.119 14.55202,6.343c0.933,5.224 3.918,4.664 4.478,1.493c0.56,-3.172 -2.052,-13.06 -2.052,-13.06l-11.381,-8.582l-14.739,1.119l-2.798,9.32899l0,0.00001z" fill="#40307D" id="svg_38"/>
      </g>
     </g>
     <g id="svg_39">
      <g id="svg_40">
       <path d="m128.80901,138.83501c-0.14299,0 -0.287,-0.041 -0.41499,-0.12599l0,0c-0.017,-0.011 -1.59699,-1.039 -3.14201,-0.36501c-0.377,0.16499 -0.81799,-0.007 -0.98199,-0.384c-0.165,-0.37799 0.007,-0.81799 0.38499,-0.983c2.304,-1.011 4.48101,0.43202 4.57302,0.494c0.34099,0.231 0.431,0.69501 0.2,1.036c-0.145,0.21301 -0.38,0.328 -0.619,0.328l-0.00002,0z" fill="#40307D" id="svg_41"/>
       <path d="m110.155,138.83299c-0.241,0 -0.477,-0.116 -0.62,-0.33c-0.229,-0.341 -0.14101,-0.802 0.2,-1.033c0.091,-0.062 2.263,-1.50499 4.572,-0.494c0.378,0.16502 0.55,0.60501 0.385,0.983c-0.165,0.377 -0.606,0.55 -0.982,0.384c-1.545,-0.675 -3.125,0.354 -3.14,0.36501c-0.128,0.08502 -0.273,0.125 -0.415,0.125z" fill="#40307D" id="svg_42"/>
      </g>
      <g id="svg_43">
       <circle cx="112.531" cy="142.877" r="1.057" fill="#40307D" id="svg_44"/>
       <circle cx="127.084" cy="142.877" r="1.057" fill="#40307D" id="svg_45"/>
      </g>
      <path d="m119.497,151.832l0,0c-0.979,0 -1.772,-0.79401 -1.772,-1.772l0,-4.509c0,-0.97899 0.793,-1.77199 1.772,-1.77199l0,0c0.979,0 1.772,0.79399 1.772,1.77199l0,4.509c0,0.979 -0.794,1.772 -1.772,1.772z" fill="#F48E69" id="svg_46"/>
      <g id="svg_47">
       <path d="m113.894,148.785c0,1.683 -1.364,3.047 -3.047,3.047c-1.683,0 -3.047,-1.364 -3.047,-3.047c0,-1.683 1.364,-3.047 3.047,-3.047c1.682,0 3.047,1.364 3.047,3.047z" fill="#FE926E" id="svg_48"/>
       <path d="m131.841,148.785c0,1.683 -1.364,3.047 -3.047,3.047c-1.68301,0 -3.047,-1.364 -3.047,-3.047c0,-1.683 1.364,-3.047 3.047,-3.047c1.683,0 3.047,1.364 3.047,3.047z" fill="#FE926E" id="svg_49"/>
      </g>
      <path d="m124.441,153.884c0,2.47299 -2.005,4.478 -4.478,4.478c-2.473,0 -4.478,-2.005 -4.478,-4.478l8.956,0z" fill="#FE624A" id="svg_50"/>
     </g>
    </g>
   </g>
   <g id="svg_51">
    <path d="m105.567,260.396l288.86494,0c31.43701,0 56.92102,25.48401 56.92102,56.92099c0,31.43701 -25.48401,56.92102 -56.92102,56.92102l-28.45996,0l-27.51102,27.51199l-27.51196,-27.51199l-205.38201,0c-31.436,0 -56.92,-25.48401 -56.92,-56.92102c0,-31.43597 25.484,-56.92099 56.92,-56.92099l0.00001,0z" fill="#00BAFC" id="svg_52"/>
    <g id="svg_53">
     <g id="svg_54">
      <path d="m296.26199,307.026l8.84299,4.64899c0.68002,0.358 1.47501,-0.22 1.34601,-0.978l-1.689,-9.84598c-0.052,-0.30103 0.048,-0.608 0.267,-0.82101l7.15399,-6.97299c0.55002,-0.53601 0.24701,-1.47101 -0.51401,-1.582l-9.88599,-1.43701c-0.302,-0.04401 -0.56299,-0.23401 -0.698,-0.50699l-4.42099,-8.95801c-0.34,-0.689 -1.323,-0.689 -1.66302,0l-4.42099,8.95801c-0.13501,0.27399 -0.396,0.46399 -0.698,0.50699l-9.88599,1.43701c-0.76105,0.11099 -1.06406,1.04498 -0.51401,1.582l7.15396,6.97299c0.21899,0.21301 0.31799,0.51999 0.26703,0.82101l-1.68903,9.84598c-0.12997,0.758 0.66501,1.33502 1.34601,0.978l8.84198,-4.64899c0.26703,-0.142 0.58902,-0.142 0.86005,0z" fill="#FEC300" id="svg_55"/>
      <path d="m287.77899,290.34299l2.10001,-0.30499c0.302,-0.04401 0.56299,-0.23401 0.698,-0.50702l4.42099,-8.95798c0.34,-0.689 1.323,-0.689 1.66299,0l4.42102,8.95798c0.13498,0.27402 0.396,0.46301 0.698,0.50702l9.88599,1.43698c0.76102,0.11102 1.064,1.04501 0.51401,1.582l-7.15399,6.97302c-0.21902,0.21298 -0.31802,0.51999 -0.267,0.82098l1.099,6.41c-9.00101,-4.40198 -14.60101,-10.83099 -18.07901,-16.918z" fill="#FEE139" id="svg_56"/>
     </g>
     <g id="svg_57">
      <path d="m252.601,307.026l8.842,4.64899c0.67999,0.358 1.47601,-0.22 1.34601,-0.978l-1.689,-9.84598c-0.052,-0.30103 0.048,-0.608 0.267,-0.82101l7.15399,-6.97299c0.55002,-0.53601 0.24701,-1.47101 -0.51401,-1.582l-9.88599,-1.43701c-0.302,-0.04401 -0.56299,-0.23401 -0.698,-0.50699l-4.42102,-8.95801c-0.34,-0.689 -1.323,-0.689 -1.66298,0l-4.42102,8.95801c-0.13498,0.27399 -0.396,0.46399 -0.698,0.50699l-9.886,1.43701c-0.761,0.11099 -1.064,1.04498 -0.51398,1.582l7.15398,6.97299c0.21899,0.21301 0.31802,0.51999 0.26701,0.82101l-1.68901,9.84598c-0.12999,0.758 0.66499,1.33502 1.34599,0.978l8.843,-4.64899c0.267,-0.142 0.59,-0.142 0.86,0l0.00002,0z" fill="#FEC300" id="svg_58"/>
      <path d="m244.119,290.34299l2.09999,-0.30499c0.302,-0.04401 0.56299,-0.23401 0.69801,-0.50702l4.42099,-8.95798c0.34,-0.689 1.323,-0.689 1.66301,0l4.42099,8.95798c0.13501,0.27402 0.396,0.46301 0.698,0.50702l9.88602,1.43698c0.76099,0.11102 1.064,1.04501 0.51398,1.582l-7.15399,6.97302c-0.21899,0.21298 -0.31799,0.51999 -0.267,0.82098l1.099,6.41c-9.00099,-4.40198 -14.601,-10.83099 -18.07899,-16.918z" fill="#FEE139" id="svg_59"/>
     </g>
     <g id="svg_60">
      <path d="m208.94099,307.026l8.842,4.64899c0.68001,0.358 1.47501,-0.22 1.34599,-0.978l-1.689,-9.84598c-0.052,-0.30103 0.04799,-0.608 0.267,-0.82101l7.15401,-6.97299c0.55,-0.53601 0.24699,-1.47101 -0.51401,-1.582l-9.886,-1.43701c-0.30199,-0.04401 -0.56299,-0.23401 -0.698,-0.50699l-4.42099,-8.95801c-0.34001,-0.689 -1.323,-0.689 -1.66301,0l-4.42099,8.95801c-0.13501,0.27399 -0.39601,0.46399 -0.698,0.50699l-9.886,1.43701c-0.761,0.11099 -1.06401,1.04498 -0.51402,1.582l7.15402,6.97299c0.21898,0.21301 0.31798,0.51999 0.267,0.82101l-1.68901,9.84598c-0.12999,0.758 0.66501,1.33502 1.34601,0.978l8.843,-4.64899c0.26701,-0.142 0.59001,-0.142 0.86,0z" fill="#FEC300" id="svg_61"/>
      <path d="m200.45799,290.34299l2.09999,-0.30499c0.302,-0.04401 0.563,-0.23401 0.69801,-0.50702l4.42099,-8.95798c0.34,-0.689 1.323,-0.689 1.66301,0l4.42099,8.95798c0.13501,0.27402 0.396,0.46301 0.698,0.50702l9.886,1.43698c0.761,0.11102 1.06401,1.04501 0.51401,1.582l-7.15401,6.97302c-0.21899,0.21298 -0.31799,0.51999 -0.26701,0.82098l1.09901,6.41c-8.99998,-4.40198 -14.59999,-10.83099 -18.07899,-16.918z" fill="#FEE139" id="svg_62"/>
     </g>
     <g id="svg_63">
      <path d="m165.28101,307.026l8.843,4.64899c0.68001,0.358 1.476,-0.22 1.34601,-0.978l-1.68901,-9.84598c-0.052,-0.30103 0.048,-0.608 0.267,-0.82101l7.15402,-6.97299c0.54999,-0.53601 0.24698,-1.47101 -0.51402,-1.582l-9.88599,-1.43701c-0.302,-0.04401 -0.563,-0.23401 -0.69801,-0.50699l-4.42099,-8.95801c-0.34,-0.689 -1.323,-0.689 -1.66301,0l-4.42099,8.95801c-0.13501,0.27399 -0.39601,0.46399 -0.698,0.50699l-9.886,1.43701c-0.761,0.11099 -1.06401,1.04498 -0.51401,1.582l7.15401,6.97299c0.218,0.21301 0.31799,0.51999 0.26701,0.82101l-1.68901,9.84598c-0.12999,0.758 0.66499,1.33502 1.34599,0.978l8.842,-4.64899c0.267,-0.142 0.59001,-0.142 0.86,0z" fill="#FEC300" id="svg_64"/>
      <path d="m156.798,290.34299l2.09999,-0.30499c0.302,-0.04401 0.56299,-0.23401 0.698,-0.50702l4.42101,-8.95798c0.34,-0.689 1.323,-0.689 1.66299,0l4.42101,8.95798c0.13499,0.27402 0.396,0.46301 0.698,0.50702l9.886,1.43698c0.761,0.11102 1.064,1.04501 0.51401,1.582l-7.15401,6.97302c-0.21899,0.21298 -0.31799,0.51999 -0.267,0.82098l1.099,6.41c-9,-4.40198 -14.601,-10.83099 -18.07899,-16.918z" fill="#FEE139" id="svg_65"/>
     </g>
     <g id="svg_66">
      <path d="m121.621,307.026l8.843,4.64899c0.67999,0.358 1.476,-0.22 1.34599,-0.978l-1.68901,-9.84598c-0.052,-0.30103 0.048,-0.608 0.267,-0.82101l7.15402,-6.97299c0.55098,-0.53601 0.24698,-1.47101 -0.51402,-1.582l-9.88599,-1.43701c-0.302,-0.04401 -0.563,-0.23401 -0.698,-0.50699l-4.42101,-8.95801c-0.34,-0.689 -1.32301,-0.689 -1.66299,0l-4.42101,8.95801c-0.13499,0.27399 -0.396,0.46399 -0.69801,0.50699l-9.88599,1.43701c-0.761,0.11099 -1.064,1.04498 -0.514,1.582l7.154,6.97299c0.21899,0.21301 0.318,0.51999 0.26701,0.82101l-1.689,9.84598c-0.13,0.758 0.665,1.33502 1.346,0.978l8.842,-4.64899c0.26701,-0.142 0.589,-0.142 0.86,0l0.00002,0z" fill="#FEC300" id="svg_67"/>
      <path d="m113.138,290.34299l2.1,-0.30499c0.302,-0.04401 0.563,-0.23401 0.698,-0.50702l4.42101,-8.95798c0.34,-0.689 1.323,-0.689 1.66299,0l4.42101,8.95798c0.13499,0.27402 0.396,0.46301 0.698,0.50702l9.88599,1.43698c0.761,0.11102 1.06401,1.04501 0.51402,1.582l-7.15402,6.97302c-0.21898,0.21298 -0.31798,0.51999 -0.267,0.82098l1.099,6.41c-9.00098,-4.40198 -14.601,-10.83099 -18.07899,-16.918l-0.00001,0z" fill="#FEE139" id="svg_68"/>
     </g>
    </g>
    <g id="svg_69">
     <path d="m107.326,334.22101l200.6,0c1.73999,0 3.151,-1.41101 3.151,-3.151l0,0c0,-1.73999 -1.41101,-3.151 -3.151,-3.151l-200.6,0c-1.74,0 -3.15099,1.41101 -3.15099,3.151l0,0c0.001,1.73999 1.411,3.151 3.15099,3.151z" fill="#FFFFFF" id="svg_70"/>
     <path d="m214.961,349.979l92.966,0c1.73999,0 3.151,-1.41101 3.151,-3.151l0,0c0,-1.73999 -1.41101,-3.151 -3.151,-3.151l-92.966,0c-1.74001,0 -3.151,1.41101 -3.151,3.151l0,0c0,1.73999 1.411,3.151 3.151,3.151z" fill="#FFFFFF" id="svg_71"/>
    </g>
    <g id="svg_72">
     <g id="svg_73">
      <defs>
       <circle id="SVGID_00000074416188478577710510000012807233093779778483_" cx="378.67" cy="318.481" r="37.5"/>
      </defs>
      <use xlink:href="#SVGID_00000074416188478577710510000012807233093779778483_" fill="#FFFFFF" id="svg_74"/>
      <clipPath id="SVGID_00000096740194077810282710000002830106806243290267_">
       <use xlink:href="#SVGID_00000074416188478577710510000012807233093779778483_" id="svg_75"/>
      </clipPath>
      <g clip-path="url(#SVGID_00000096740194077810282710000002830106806243290267_)" id="svg_76">
       <path d="m375.84,298.642c0,0 -10.69699,-0.49701 -16.66699,14.42801c-5.97,14.42798 -6.716,21.39301 -1.98999,26.36798c4.72598,4.97501 9.702,6.716 18.40799,2.73602c0,0 8.95499,6.46799 19.40298,0.746c10.448,-5.72101 9.70203,-21.14401 4.72601,-28.10901c-4.97501,-6.965 -10.69601,-16.91501 -23.88,-16.16901z" fill="#FE624A" id="svg_77"/>
       <path d="m397.48199,380.23401l0,-19.52701c0,-10.647 -8.63098,-19.27899 -19.27899,-19.27899l0,0c-10.647,0 -19.27899,8.63101 -19.27899,19.27899l0,19.52701l38.55798,0z" fill="#FEC300" id="svg_78"/>
       <path d="m378.85599,351.31601l0,0c-3.86398,0 -6.996,-3.13199 -6.996,-6.996l0,-12.034l13.99301,0l0,12.034c-0.00101,3.86398 -3.133,6.996 -6.99701,6.996z" fill="#F48E69" id="svg_79"/>
       <g id="svg_80">
        <path d="m364.112,323.70801c0,0 -1.32001,-4.88599 -4.358,-3.565c-3.03699,1.32001 0.66,11.09302 3.30099,8.84799c2.642,-2.246 1.05701,-5.28299 1.05701,-5.28299z" fill="#F48E69" id="svg_81"/>
        <path d="m394.16,323.70801c0,0 1.32001,-4.88599 4.358,-3.565c3.03699,1.32001 -0.66,11.09302 -3.30099,8.84799c-2.642,-2.246 -1.05701,-5.28299 -1.05701,-5.28299z" fill="#F48E69" id="svg_82"/>
       </g>
       <path d="m378.82501,339.37601l0,0c-8.92999,0 -16.16901,-7.23898 -16.16901,-16.16901l0,-0.995c0,-8.92999 7.23901,-16.16901 16.16901,-16.16901l0,0c8.92999,0 16.16901,7.23901 16.16901,16.16901l0,0.995c-0.00003,8.92999 -7.23901,16.16901 -16.16901,16.16901z" fill="#FFC39A" id="svg_83"/>
       <g id="svg_84">
        <g id="svg_85">
         <path d="m387.79501,316.05499c-0.14301,0 -0.28702,-0.04102 -0.41501,-0.12601l0,0c-0.017,-0.01099 -1.59799,-1.039 -3.142,-0.36499c-0.37698,0.16501 -0.81799,-0.00702 -0.98199,-0.384c-0.16501,-0.37799 0.00699,-0.81799 0.38501,-0.983c2.30399,-1.01099 4.48099,0.43201 4.573,0.49399c0.341,0.23102 0.431,0.69501 0.19998,1.03601c-0.14401,0.21402 -0.38,0.328 -0.61899,0.328z" fill="#40307D" id="svg_86"/>
         <path d="m369.14099,316.05399c-0.241,0 -0.47699,-0.11499 -0.62,-0.32999c-0.229,-0.341 -0.14099,-0.802 0.19998,-1.03302c0.091,-0.06198 2.263,-1.50497 4.57202,-0.49399c0.37799,0.16501 0.54999,0.60501 0.38498,0.983c-0.16498,0.37698 -0.60599,0.54999 -0.98199,0.384c-1.54498,-0.67502 -3.125,0.354 -3.13998,0.36499c-0.12799,0.08401 -0.27301,0.125 -0.41501,0.125z" fill="#40307D" id="svg_87"/>
        </g>
        <g id="svg_88">
         <circle cx="371.518" cy="320.098" r="1.057" fill="#40307D" id="svg_89"/>
         <path d="m387.12701,320.09799c0,0.58398 -0.47299,1.05701 -1.05701,1.05701c-0.58398,0 -1.05701,-0.47302 -1.05701,-1.05701s0.47302,-1.05701 1.05701,-1.05701c0.58398,-0.00098 1.05701,0.47302 1.05701,1.05701z" fill="#40307D" id="svg_90"/>
        </g>
        <path d="m378.483,329.05301l0,0c-0.979,0 -1.772,-0.793 -1.772,-1.772l0,-4.509c0,-0.979 0.79401,-1.772 1.772,-1.772l0,0c0.979,0 1.772,0.79401 1.772,1.772l0,4.509c0,0.978 -0.793,1.772 -1.772,1.772z" fill="#F48E69" id="svg_91"/>
        <g id="svg_92">
         <path d="m372.88,326.00601c0,1.68298 -1.36401,3.047 -3.047,3.047c-1.68301,0 -3.047,-1.36401 -3.047,-3.047c0,-1.68301 1.36401,-3.047 3.047,-3.047c1.68298,-0.00101 3.047,1.36398 3.047,3.047z" fill="#FE926E" id="svg_93"/>
         <path d="m390.827,326.00601c0,1.68298 -1.36398,3.047 -3.047,3.047c-1.68301,0 -3.047,-1.36401 -3.047,-3.047c0,-1.68301 1.36398,-3.047 3.047,-3.047c1.68301,-0.00101 3.047,1.36398 3.047,3.047z" fill="#FE926E" id="svg_94"/>
        </g>
        <path d="m383.427,331.10501c0,2.47299 -2.005,4.478 -4.478,4.478s-4.478,-2.005 -4.478,-4.478l8.95599,0z" fill="#FE624A" id="svg_95"/>
       </g>
       <path d="m388.27802,307.10001c0,0 -2.73599,7.711 -15.91998,11.69101c-13.18402,3.97998 -14.92502,8.707 -14.92502,8.707s-0.49701,-9.453 7.21402,-18.40802c7.71198,-8.95499 17.16397,-8.20898 17.16397,-8.20898l6.46701,6.21899z" fill="#FE624A" id="svg_96"/>
      </g>
     </g>
    </g>
   </g>
  </g>
  <g id="DESIGNED_BY_FREEPIK">
   <g id="svg_97">
    <g id="XMLID_319_">
     <g id="XMLID_338_">
      <path id="XMLID_346_" d="m261.44199,464.892c-0.48999,0.50201 -0.91,1.05402 -1.255,1.646l-0.52698,-0.27298c-0.07602,-0.33701 -0.39603,-0.569 -0.746,-0.52802c-0.375,0.04401 -0.64301,0.384 -0.599,0.759c0.04398,0.375 0.384,0.64301 0.758,0.599c0.07404,-0.009 0.14398,-0.02899 0.20798,-0.05899l0.51105,0.26498c-0.28403,0.62701 -0.48999,1.289 -0.61099,1.97501l0.845,0.14899c0.25998,-1.47897 0.96198,-2.83899 2.02899,-3.93198l-0.61304,-0.60101z"/>
      <path id="XMLID_345_" d="m267.65601,462.285c-0.194,0 -0.38599,0.00699 -0.577,0.01898l-0.08301,-0.70898c0.21201,-0.16901 0.33502,-0.44 0.30099,-0.73001c-0.052,-0.44498 -0.45599,-0.763 -0.901,-0.711c-0.44498,0.052 -0.763,0.45502 -0.711,0.901c0.03403,0.28799 0.21402,0.522 0.45801,0.638l0.08301,0.707c-0.80801,0.13202 -1.58899,0.37601 -2.332,0.73199l0.37,0.77402c1.05801,-0.50601 2.19901,-0.76199 3.392,-0.76199c0.56201,0 1.12399,0.06 1.67001,0.17798l0.18198,-0.83899c-0.60498,-0.13101 -1.229,-0.198 -1.85199,-0.198z"/>
      <path id="XMLID_344_" d="m275.133,465.17001c0.375,-0.04599 0.64099,-0.38699 0.595,-0.76102c-0.04599,-0.375 -0.38699,-0.64099 -0.76099,-0.595c-0.35001,0.04303 -0.60602,0.34402 -0.60001,0.68903l-0.47101,0.41098c-0.47299,-0.487 -1.00699,-0.91998 -1.59399,-1.28998l-0.45801,0.72598c1.284,0.80899 2.28799,1.95502 2.90302,3.31302l0.78198,-0.354c-0.284,-0.62701 -0.64301,-1.21402 -1.06699,-1.75l0.45499,-0.397c0.069,0.01297 0.142,0.01697 0.216,0.008z"/>
      <path id="XMLID_343_" d="m267.03601,473.845c-0.43701,0.026 -0.87799,0.039 -1.31,0.039c-0.99701,0 -1.96201,-0.069 -2.80701,-0.203c-0.44199,-0.07001 -0.95801,-0.17599 -1.43799,-0.33099c1.185,2.10699 3.47598,3.539 6.10199,3.539c3.233,0 5.95901,-2.17001 6.737,-5.10001c-0.772,0.509 -1.70499,0.935 -2.784,1.271c-1.33502,0.418 -2.89304,0.689 -4.5,0.785z"/>
      <path id="XMLID_339_" d="m267.65601,464.00201c-3.79599,0 -6.884,3.01898 -6.884,6.73001c0,0.48199 0.052,0.96198 0.155,1.42798c0.763,0.547 3.064,1.008 6.05502,0.828c3.26099,-0.19598 5.99799,-1.08398 7.556,-2.444c-0.00601,-0.22101 -0.02301,-0.44199 -0.05103,-0.659c-0.431,-3.354 -3.367,-5.883 -6.83099,-5.883zm-2.44501,7.37799c-1.155,0 -2.095,-0.94 -2.095,-2.095c0,-1.155 0.94,-2.095 2.095,-2.095c1.155,0 2.095,0.94 2.095,2.095c0,1.155 -0.94,2.095 -2.095,2.095zm5.36499,-1.02899c-0.849,0 -1.54001,-0.69101 -1.54001,-1.54001c0,-0.849 0.69101,-1.54099 1.54001,-1.54099c0.849,0 1.54102,0.69098 1.54102,1.54099c-0.00101,0.849 -0.69202,1.54001 -1.54102,1.54001z"/>
     </g>
     <path id="XMLID_336_" d="m285.77899,466.116c-0.33401,-0.13101 -0.91199,-0.35001 -1.565,-0.26901c-0.62399,0.078 -0.95599,0.38602 -0.95599,1.14001l0,0.98099l2.52298,0l0,1.94501l-2.52298,0l0,6.177l-2.18802,0l0,-6.177l-1.517,0l0,-1.94501l1.517,0l0,-1.00598c0,-1.90201 1.01401,-3.151 2.90802,-3.151c0.728,0 1.31,0.138 1.79999,0.349l0.00101,1.95599z"/>
     <path id="XMLID_334_" d="m291.104,469.89001c-0.20001,-0.034 -0.405,-0.052 -0.59601,-0.052c-1.01401,0 -1.70999,0.62 -1.70999,1.827l0,4.42499l-2.18802,0l0,-8.12198l2.12003,0l0,0.888c0.51099,-0.763 1.29099,-1.10599 2.28799,-1.10599c0.46899,0 0.95999,0.14398 1.23898,0.38098l-1.15298,1.759z"/>
     <path id="XMLID_331_" d="m299.78601,472.017c0,0.25101 -0.017,0.55301 -0.04199,0.73801l-5.758,0c0.23499,1.173 1.056,1.685 2.08698,1.685c0.70401,0 1.46701,-0.285 2.05301,-0.77899l1.28201,1.40799c-0.922,0.84601 -2.095,1.23199 -3.461,1.23199c-2.48901,0 -4.216,-1.69299 -4.216,-4.24899c0,-2.556 1.67599,-4.29999 4.10699,-4.29999c2.33899,-0.00201 3.94,1.73297 3.948,4.26498zm-5.79102,-0.755l3.595,0c-0.20099,-1.039 -0.82999,-1.62601 -1.76801,-1.62601c-1.03101,0 -1.63498,0.621 -1.827,1.62601z"/>
     <path id="XMLID_328_" d="m308.453,472.017c0,0.25101 -0.017,0.55301 -0.04199,0.73801l-5.758,0c0.23499,1.173 1.056,1.685 2.08698,1.685c0.70401,0 1.46701,-0.285 2.05301,-0.77899l1.28201,1.40799c-0.922,0.84601 -2.095,1.23199 -3.461,1.23199c-2.48901,0 -4.216,-1.69299 -4.216,-4.24899c0,-2.556 1.67599,-4.29999 4.10699,-4.29999c2.33798,-0.00201 3.939,1.73297 3.948,4.26498zm-5.79199,-0.755l3.59601,0c-0.20102,-1.039 -0.83002,-1.62601 -1.76801,-1.62601c-1.03201,0 -1.63501,0.621 -1.828,1.62601z"/>
     <path id="XMLID_325_" d="m317.90302,472.02499c0,2.439 -1.69299,4.27499 -3.931,4.27499c-1.09,0 -1.86099,-0.42801 -2.38901,-1.056l0,4.19901l-2.17899,0l0,-11.474l2.13699,0l0,0.897c0.52802,-0.66202 1.30701,-1.11502 2.422,-1.11502c2.24698,-0.00098 3.94,1.83502 3.94,4.27402zm-6.42801,0c0,1.28198 0.84601,2.23801 2.08701,2.23801c1.29099,0 2.095,-0.99701 2.095,-2.23801c0,-1.23999 -0.80499,-2.23801 -2.095,-2.23801c-1.241,0 -2.08701,0.95502 -2.08701,2.23801z"/>
     <path id="XMLID_322_" d="m321.418,465.311c0,0.78799 -0.612,1.39099 -1.39999,1.39099c-0.78799,0 -1.39099,-0.603 -1.39099,-1.39099c0,-0.78799 0.60397,-1.40799 1.39099,-1.40799c0.78799,0 1.39999,0.62097 1.39999,1.40799zm-0.29401,10.77899l-2.18799,0l0,-8.12201l2.18799,0l0,8.12201z"/>
     <path id="XMLID_320_" d="m324.77499,470.85999l3.05899,-2.892l2.68201,0l-3.939,3.82199l3.96399,4.30002l-2.69,0l-3.07599,-3.285l0,3.285l-2.18802,0l0,-12.069l2.18802,0l0,6.83899z"/>
    </g>
    <g id="svg_98">
     <path d="m175.729,476.01599l0,-1.194c-0.597,0.81299 -1.576,1.39301 -2.70401,1.39301c-2.09,0 -3.56599,-1.59201 -3.56599,-4.19601c0,-2.55499 1.46001,-4.21298 3.56599,-4.21298c1.078,0 2.05701,0.53098 2.70401,1.41l0,-4.263l1.244,0l0,11.064l-1.244,0l0,-0.00101zm0,-2.173l0,-3.633c-0.448,-0.69699 -1.41,-1.29401 -2.405,-1.29401c-1.60901,0 -2.571,1.327 -2.571,3.10199c0,1.77502 0.96199,3.08502 2.571,3.08502c0.995,0.00101 1.957,-0.56299 2.405,-1.26001z" id="svg_99"/>
     <path d="m178.582,472.00201c0,-2.32199 1.659,-4.19699 3.948,-4.19699c2.422,0 3.84801,1.89099 3.84801,4.29599l0,0.31601l-6.48601,0c0.10001,1.50897 1.161,2.76999 2.886,2.76999c0.912,0 1.841,-0.36499 2.47099,-1.01199l0.597,0.81299c-0.79599,0.79599 -1.87399,1.22699 -3.185,1.22699c-2.371,0 -4.07899,-1.70801 -4.07899,-4.21298zm3.931,-3.168c-1.709,0 -2.55501,1.44299 -2.621,2.66998l5.258,0c-0.01599,-1.194 -0.81299,-2.66998 -2.63698,-2.66998l-0.00002,0z" id="svg_100"/>
     <path d="m187.27299,474.95499l0.647,-0.89499c0.53101,0.61398 1.543,1.14499 2.63701,1.14499c1.228,0 1.89099,-0.58099 1.89099,-1.37698c0,-1.94 -4.95999,-0.746 -4.95999,-3.716c0,-1.24402 1.07799,-2.306 2.985,-2.306c1.35999,0 2.323,0.51398 2.96899,1.16098l-0.58101,0.86301c-0.48099,-0.58096 -1.35999,-1.01196 -2.38899,-1.01196c-1.095,0 -1.77499,0.547 -1.77499,1.26099c0,1.758 4.95999,0.59702 4.95999,3.716c0,1.34396 -1.078,2.422 -3.151,2.422c-1.30899,-0.00198 -2.42,-0.39999 -3.233,-1.26199l0,-0.00003z" id="svg_101"/>
     <path d="m195.05299,466.03101c0,-0.46399 0.382,-0.84601 0.82898,-0.84601c0.46501,0 0.84602,0.38101 0.84602,0.84601c0,0.465 -0.38101,0.82901 -0.84602,0.82901c-0.44797,-0.00003 -0.82898,-0.36502 -0.82898,-0.82901zm0.21501,9.98499l0,-8.01199l1.24399,0l0,8.01199l-1.24399,0z" id="svg_102"/>
     <path d="m198.569,478.073l0.63,-0.92899c0.66298,0.79599 1.45999,1.095 2.60399,1.095c1.32701,0 2.571,-0.647 2.571,-2.405l0,-1.14502c-0.58099,0.81302 -1.55899,1.427 -2.687,1.427c-2.09001,0 -3.56599,-1.55899 -3.56599,-4.147c0,-2.57098 1.45999,-4.16299 3.56599,-4.16299c1.07799,0 2.04001,0.53101 2.687,1.41l0,-1.211l1.244,0l0,7.78c0,2.65399 -1.858,3.483 -3.815,3.483c-1.36,-0.00101 -2.28899,-0.26599 -3.23399,-1.19501zm5.80499,-4.362l0,-3.5c-0.43201,-0.69699 -1.39301,-1.29401 -2.38901,-1.29401c-1.60899,0 -2.571,1.27701 -2.571,3.052c0,1.758 0.96201,3.052 2.571,3.052c0.99602,0 1.95801,-0.61301 2.38901,-1.31z" id="svg_103"/>
     <path d="m213.099,476.01599l0,-5.242c0,-1.41 -0.713,-1.858 -1.791,-1.858c-0.979,0 -1.908,0.59702 -2.37199,1.24402l0,5.85498l-1.24399,0l0,-8.01199l1.24399,0l0,1.16101c0.56401,-0.66302 1.65799,-1.36002 2.85301,-1.36002c1.67499,0 2.55498,0.84601 2.55498,2.58801l0,5.62299l-1.245,0l0,0.00101z" id="svg_104"/>
     <path d="m215.952,472.00201c0,-2.32199 1.659,-4.19699 3.948,-4.19699c2.42201,0 3.84802,1.89099 3.84802,4.29599l0,0.31601l-6.48602,0c0.099,1.50897 1.16101,2.76999 2.886,2.76999c0.912,0 1.841,-0.36499 2.472,-1.01199l0.597,0.81299c-0.79599,0.79599 -1.87398,1.22699 -3.185,1.22699c-2.37199,0 -4.08,-1.70801 -4.08,-4.21298zm3.931,-3.168c-1.70799,0 -2.55499,1.44299 -2.621,2.66998l5.25801,0c-0.017,-1.194 -0.81299,-2.66998 -2.63701,-2.66998z" id="svg_105"/>
     <path d="m231.146,476.01599l0,-1.194c-0.597,0.81299 -1.57599,1.39301 -2.70398,1.39301c-2.09001,0 -3.56599,-1.59201 -3.56599,-4.19601c0,-2.55499 1.45999,-4.21298 3.56599,-4.21298c1.07799,0 2.05698,0.53098 2.70398,1.41l0,-4.263l1.244,0l0,11.064l-1.244,0l0,-0.00101zm0,-2.173l0,-3.633c-0.448,-0.69699 -1.41,-1.29401 -2.405,-1.29401c-1.60899,0 -2.571,1.327 -2.571,3.10199c0,1.77502 0.96201,3.08502 2.571,3.08502c0.995,0.00101 1.95601,-0.56299 2.405,-1.26001z" id="svg_106"/>
     <path d="m238.327,476.01599l0,-11.064l1.244,0l0,4.263c0.647,-0.879 1.60899,-1.41 2.70399,-1.41c2.09001,0 3.56601,1.659 3.56601,4.21298c0,2.604 -1.476,4.19601 -3.56601,4.19601c-1.12799,0 -2.10699,-0.58099 -2.70399,-1.39301l0,1.194l-1.244,0l0,0.00101zm3.63301,-0.91199c1.62601,0 2.588,-1.31 2.588,-3.08499c0,-1.77502 -0.96199,-3.10202 -2.588,-3.10202c-0.979,0 -1.957,0.59702 -2.388,1.29401l0,3.633c0.431,0.69601 1.409,1.26001 2.388,1.26001z" id="svg_107"/>
     <path d="m247.201,478.02301c0.18199,0.08301 0.481,0.133 0.67999,0.133c0.547,0 0.91199,-0.18201 1.194,-0.84601l0.53101,-1.211l-3.351,-8.095l1.34398,0l2.67102,6.569l2.65399,-6.569l1.36,0l-4.01399,9.63702c-0.481,1.16098 -1.29402,1.60898 -2.356,1.625c-0.265,0 -0.68001,-0.05002 -0.912,-0.116l0.19901,-1.12701z" id="svg_108"/>
    </g>
   </g>
  </g>
 </g>
</svg>